<svg xmlns="http://www.w3.org/2000/svg" xmlns:xlink="http://www.w3.org/1999/xlink" viewBox="0 0 201.67 201.67"><defs><style>.cls-1{fill:#fff;}.cls-2{opacity:0.15;}.cls-3{fill:url(#linear-gradient);}.cls-4{fill:#5464b6;}.cls-5,.cls-6{fill:none;stroke:#5464b6;stroke-miterlimit:10;}.cls-5{stroke-width:3px;}.cls-6{stroke-width:8px;}</style><linearGradient id="linear-gradient" x1="37.75" y1="100.83" x2="163.92" y2="100.83" gradientUnits="userSpaceOnUse"><stop offset="0" stop-color="#fff"/><stop offset="1"/></linearGradient></defs><title>Asset 10</title><g id="Layer_2" data-name="Layer 2"><g id="Layer_1-2" data-name="Layer 1"><path class="cls-1" d="M201.67,100.83A100.84,100.84,0,1,1,100.83,0,100.84,100.84,0,0,1,201.67,100.83"/><g class="cls-2"><path class="cls-3" d="M190.05,100.83a89.22,89.22,0,1,1-89.22-89.21,89.21,89.21,0,0,1,89.22,89.21"/></g><path class="cls-4" d="M134.75,108.28A26.62,26.62,0,0,1,121,127.43c-1.16.65-2.21.52-2.57-.33-.49-1.17.2-1.83,1.13-2.35a23.63,23.63,0,0,0,1-41c-.48-.28-1-.55-1.42-.85a1.51,1.51,0,0,1-.68-2.08,1.43,1.43,0,0,1,2.1-.54,23.52,23.52,0,0,1,4.7,3,26.36,26.36,0,0,1,9.35,16,1.55,1.55,0,0,0,.13.36Z"/><path class="cls-5" d="M134.75,108.28A26.62,26.62,0,0,1,121,127.43c-1.16.65-2.21.52-2.57-.33-.49-1.17.2-1.83,1.13-2.35a23.63,23.63,0,0,0,1-41c-.48-.28-1-.55-1.42-.85a1.51,1.51,0,0,1-.68-2.08,1.43,1.43,0,0,1,2.1-.54,23.52,23.52,0,0,1,4.7,3,26.36,26.36,0,0,1,9.35,16,1.55,1.55,0,0,0,.13.36Z"/><path class="cls-4" d="M104.89,103.73v23.11a10.73,10.73,0,0,1-.52,3.52,3.64,3.64,0,0,1-5.07,2.19A6.9,6.9,0,0,1,97.14,131c-4.65-4.67-9.34-9.32-14-14a3,3,0,0,0-2.34-1c-2.34.06-4.69,0-7,0-3,0-4.57-1.55-4.57-4.52,0-5.11.09-10.22,0-15.33a4.1,4.1,0,0,1,4.22-4.27c2.43,0,4.85,0,7.28,0A2.84,2.84,0,0,0,82.93,91c4.7-4.69,9.43-9.34,14.16-14,.09-.09.17-.18.27-.27,1.44-1.38,3.08-2.24,5.08-1.39s2.41,2.55,2.43,4.42c0,3.67,0,7.33,0,11v13m-3,0c0-7.71,0-15.42,0-23.13,0-.91.17-2.08-.84-2.48s-1.51.6-2.09,1.18c-5.14,5.11-10.24,10.24-15.38,15.34a3,3,0,0,0-1,2.37c0,4.6,0,9.2,0,13.8a3.34,3.34,0,0,0,1.08,2.59c5.06,5,10.07,10,15.11,15.07a11.61,11.61,0,0,0,1,.94c1,.81,1.6.61,1.84-.66a12,12,0,0,0,.25-2.4c0-7.54,0-15.08,0-22.62M79.7,104c0-2.6,0-5.2,0-7.79,0-.81-.26-1.16-1.1-1.15-1.66,0-3.32,0-5,0a1.26,1.26,0,0,0-1.44,1.4q0,7.47,0,14.94a1.3,1.3,0,0,0,1.51,1.46c1.62,0,3.23,0,4.85,0,.91,0,1.18-.36,1.16-1.22,0-2.56,0-5.11,0-7.66"/><path class="cls-5" d="M104.89,103.73v23.11a10.73,10.73,0,0,1-.52,3.52,3.64,3.64,0,0,1-5.07,2.19A6.9,6.9,0,0,1,97.14,131c-4.65-4.67-9.34-9.32-14-14a3,3,0,0,0-2.34-1c-2.34.06-4.69,0-7,0-3,0-4.57-1.55-4.57-4.52,0-5.11.09-10.22,0-15.33a4.1,4.1,0,0,1,4.22-4.27c2.43,0,4.85,0,7.28,0A2.84,2.84,0,0,0,82.93,91c4.7-4.69,9.43-9.34,14.16-14,.09-.09.17-.18.27-.27,1.44-1.38,3.08-2.24,5.08-1.39s2.41,2.55,2.43,4.42c0,3.67,0,7.33,0,11ZM79.7,104c0-2.6,0-5.2,0-7.79,0-.81-.26-1.16-1.1-1.15-1.66,0-3.32,0-5,0a1.26,1.26,0,0,0-1.44,1.4q0,7.47,0,14.94a1.3,1.3,0,0,0,1.51,1.46c1.62,0,3.23,0,4.85,0,.91,0,1.18-.36,1.16-1.22C79.68,109.07,79.7,106.52,79.7,104Z"/><path class="cls-4" d="M122.75,103.82a15.88,15.88,0,0,0-7.82-13.68c-.15-.09-.3-.17-.44-.27-.76-.55-1.26-1.23-.7-2.16a1.51,1.51,0,0,1,2.24-.44,18.35,18.35,0,0,1,5,4,19.15,19.15,0,0,1-4.45,29.07c-1.23.74-2.22.7-2.73-.1s-.09-1.72,1.11-2.48a16,16,0,0,0,7.83-13.92"/><path class="cls-5" d="M122.75,103.82a15.88,15.88,0,0,0-7.82-13.68c-.15-.09-.3-.17-.44-.27-.76-.55-1.26-1.23-.7-2.16a1.51,1.51,0,0,1,2.24-.44,18.35,18.35,0,0,1,5,4,19.15,19.15,0,0,1-4.45,29.07c-1.23.74-2.22.7-2.73-.1s-.09-1.72,1.11-2.48A16,16,0,0,0,122.75,103.82Z"/><path class="cls-4" d="M116.64,103.68a9.16,9.16,0,0,1-6.25,8.83c-.9.28-1.71.37-2.19-.63s0-1.68,1.14-2.18c3-1.3,4.24-3.14,4.15-6A5.75,5.75,0,0,0,110,98.43c-.31-.15-.64-.24-1-.38a1.46,1.46,0,0,1-.87-2,1.39,1.39,0,0,1,1.91-.78A8.8,8.8,0,0,1,116.4,102c.14.62.18,1.26.24,1.66"/><path class="cls-5" d="M116.64,103.68a9.16,9.16,0,0,1-6.25,8.83c-.9.28-1.71.37-2.19-.63s0-1.68,1.14-2.18c3-1.3,4.24-3.14,4.15-6A5.75,5.75,0,0,0,110,98.43c-.31-.15-.64-.24-1-.38a1.46,1.46,0,0,1-.87-2,1.39,1.39,0,0,1,1.91-.78A8.8,8.8,0,0,1,116.4,102C116.54,102.64,116.58,103.28,116.64,103.68Z"/><path class="cls-6" d="M156.57,103.9a54.83,54.83,0,1,1-54.83-54.83A54.83,54.83,0,0,1,156.57,103.9Z"/></g></g></svg>